<svg width="20" height="20" viewBox="0 0 20 20" fill="none" xmlns="http://www.w3.org/2000/svg">
<g id="App_Store">
<g id="2912255711360">
<path id="Vector" d="M19.606 10.4513C19.6103 11.1053 19.4418 11.7489 19.1176 12.3169C18.8133 12.8711 18.3629 13.3311 17.8153 13.647C17.8325 13.8043 17.8396 13.9625 17.8365 14.1208C17.8456 14.5987 17.7605 15.0737 17.5859 15.5187C17.4113 15.9637 17.1508 16.3699 16.8191 16.7141C16.3628 17.21 15.7668 17.5556 15.1099 17.7053C14.453 17.855 13.7661 17.8017 13.1401 17.5526C12.8484 18.1575 12.3984 18.6722 11.8378 19.0422C11.2888 19.4126 10.6421 19.6115 9.97976 19.6136C9.31746 19.6156 8.66949 19.4207 8.11821 19.0536C7.55823 18.6818 7.11202 18.1623 6.82895 17.5526C6.4407 17.7101 6.02542 17.7903 5.60644 17.7886C5.14263 17.7934 4.68303 17.7002 4.25775 17.515C3.83247 17.3299 3.4511 17.0569 3.13861 16.7141C2.80341 16.3719 2.53977 15.9663 2.36313 15.521C2.18648 15.0757 2.10036 14.5997 2.10981 14.1208C2.1147 13.9621 2.12883 13.804 2.15214 13.647C1.60504 13.3305 1.15475 12.8706 0.849855 12.3169C0.525675 11.7289 0.360289 11.0665 0.369995 10.3951C0.3797 9.72366 0.564161 9.06634 0.905202 8.48791C1.24213 7.91425 1.74341 7.45489 2.34422 7.16924C2.18912 6.75753 2.10864 6.32146 2.10656 5.8815C2.09711 5.40254 2.18323 4.9265 2.35987 4.48122C2.53652 4.03593 2.80015 3.63032 3.13536 3.28811C3.44862 2.94628 3.83013 2.67401 4.25524 2.48892C4.68034 2.30384 5.13955 2.21006 5.60318 2.21364C6.02221 2.21149 6.43759 2.29169 6.8257 2.4497C7.11791 1.84505 7.56781 1.33044 8.12798 0.960092C8.67551 0.589222 9.32162 0.390991 9.98291 0.390991C10.6442 0.390991 11.2903 0.589222 11.8378 0.960092C12.3979 1.33131 12.8477 1.8464 13.1401 2.45133C13.5288 2.29319 13.9447 2.21299 14.3643 2.21527C14.8261 2.20972 15.2839 2.30251 15.7071 2.48748C16.1304 2.67245 16.5094 2.94537 16.8191 3.28811C17.1512 3.6323 17.4121 4.03874 17.5867 4.48408C17.7613 4.92942 17.8462 5.40488 17.8365 5.88313C17.8429 6.32167 17.7707 6.75781 17.6232 7.17087C18.2242 7.4556 18.7252 7.91523 19.0606 8.48954C19.4171 9.08321 19.603 9.76369 19.5978 10.4562L19.606 10.4513Z" fill="#1DA1F2"/>
</g>
</g>
</svg>
