<svg width="1103" height="48" viewBox="0 0 1103 48" fill="none" xmlns="http://www.w3.org/2000/svg">
<path d="M0 47H1102.5" stroke="#2D2E33" stroke-width="0.5"/>
<path d="M141.125 28.5L138.375 31.25L135.625 28.5" stroke="#1F3684" stroke-linecap="round" stroke-linejoin="round"/>
<path d="M138.375 14.75V31.25" stroke="#1F3684" stroke-linecap="round" stroke-linejoin="round"/>
<path d="M143.875 17.5L146.625 14.75L149.375 17.5" stroke="#1F3684" stroke-linecap="round" stroke-linejoin="round"/>
<path d="M146.625 31.25V14.75" stroke="#1F3684" stroke-linecap="round" stroke-linejoin="round"/>
<path d="M329.254 25.008H323.014L321.67 28H320.438L325.558 16.8H326.726L331.846 28H330.598L329.254 25.008ZM328.822 24.048L326.134 18.032L323.446 24.048H328.822ZM343.955 19.52C345.011 19.52 345.838 19.824 346.435 20.432C347.043 21.04 347.347 21.936 347.347 23.12V28H346.211V23.232C346.211 22.3573 345.998 21.6907 345.571 21.232C345.155 20.7733 344.563 20.544 343.795 20.544C342.92 20.544 342.232 20.816 341.731 21.36C341.23 21.8933 340.979 22.6347 340.979 23.584V28H339.843V23.232C339.843 22.3573 339.63 21.6907 339.203 21.232C338.787 20.7733 338.19 20.544 337.411 20.544C336.547 20.544 335.859 20.816 335.347 21.36C334.846 21.8933 334.595 22.6347 334.595 23.584V28H333.459V19.584H334.547V21.12C334.846 20.608 335.262 20.2133 335.795 19.936C336.328 19.6587 336.942 19.52 337.635 19.52C338.339 19.52 338.947 19.6693 339.459 19.968C339.982 20.2667 340.371 20.7093 340.627 21.296C340.936 20.7413 341.379 20.3093 341.955 20C342.542 19.68 343.208 19.52 343.955 19.52ZM353.899 28.08C353.088 28.08 352.358 27.8987 351.707 27.536C351.056 27.1627 350.544 26.6507 350.171 26C349.798 25.3493 349.611 24.6133 349.611 23.792C349.611 22.9707 349.798 22.2347 350.171 21.584C350.544 20.9333 351.056 20.4267 351.707 20.064C352.358 19.7013 353.088 19.52 353.899 19.52C354.71 19.52 355.44 19.7013 356.091 20.064C356.742 20.4267 357.248 20.9333 357.611 21.584C357.984 22.2347 358.171 22.9707 358.171 23.792C358.171 24.6133 357.984 25.3493 357.611 26C357.248 26.6507 356.742 27.1627 356.091 27.536C355.44 27.8987 354.71 28.08 353.899 28.08ZM353.899 27.072C354.496 27.072 355.03 26.9387 355.499 26.672C355.979 26.3947 356.352 26.0053 356.619 25.504C356.886 25.0027 357.019 24.432 357.019 23.792C357.019 23.152 356.886 22.5813 356.619 22.08C356.352 21.5787 355.979 21.1947 355.499 20.928C355.03 20.6507 354.496 20.512 353.899 20.512C353.302 20.512 352.763 20.6507 352.283 20.928C351.814 21.1947 351.44 21.5787 351.163 22.08C350.896 22.5813 350.763 23.152 350.763 23.792C350.763 24.432 350.896 25.0027 351.163 25.504C351.44 26.0053 351.814 26.3947 352.283 26.672C352.763 26.9387 353.302 27.072 353.899 27.072ZM368.074 19.584V28H366.986V26.464C366.688 26.976 366.277 27.376 365.754 27.664C365.232 27.9413 364.634 28.08 363.962 28.08C362.864 28.08 361.994 27.776 361.354 27.168C360.725 26.5493 360.41 25.648 360.41 24.464V19.584H361.546V24.352C361.546 25.2373 361.765 25.9093 362.202 26.368C362.64 26.8267 363.264 27.056 364.074 27.056C364.96 27.056 365.658 26.7893 366.17 26.256C366.682 25.712 366.938 24.96 366.938 24V19.584H368.074ZM375.544 19.52C376.6 19.52 377.437 19.8293 378.056 20.448C378.685 21.056 379 21.9467 379 23.12V28H377.864V23.232C377.864 22.3573 377.645 21.6907 377.208 21.232C376.771 20.7733 376.147 20.544 375.336 20.544C374.429 20.544 373.709 20.816 373.176 21.36C372.653 21.8933 372.392 22.6347 372.392 23.584V28H371.256V19.584H372.344V21.136C372.653 20.624 373.08 20.2293 373.624 19.952C374.179 19.664 374.819 19.52 375.544 19.52ZM386.516 27.488C386.303 27.68 386.036 27.8293 385.716 27.936C385.407 28.032 385.081 28.08 384.74 28.08C383.951 28.08 383.343 27.8667 382.916 27.44C382.489 27.0133 382.276 26.4107 382.276 25.632V20.544H380.772V19.584H382.276V17.744H383.412V19.584H385.972V20.544H383.412V25.568C383.412 26.0693 383.535 26.4533 383.78 26.72C384.036 26.976 384.399 27.104 384.868 27.104C385.103 27.104 385.327 27.0667 385.54 26.992C385.764 26.9173 385.956 26.8107 386.116 26.672L386.516 27.488Z" fill="#1F3684"/>
<path d="M449.688 28.096C448.579 28.096 447.576 27.8507 446.68 27.36C445.795 26.8693 445.096 26.192 444.584 25.328C444.083 24.4533 443.832 23.4773 443.832 22.4C443.832 21.3227 444.083 20.352 444.584 19.488C445.096 18.6133 445.8 17.9307 446.696 17.44C447.592 16.9493 448.595 16.704 449.704 16.704C450.536 16.704 451.304 16.8427 452.008 17.12C452.712 17.3973 453.309 17.8027 453.8 18.336L453.048 19.088C452.173 18.2027 451.069 17.76 449.736 17.76C448.851 17.76 448.045 17.9627 447.32 18.368C446.595 18.7733 446.024 19.328 445.608 20.032C445.203 20.736 445 21.5253 445 22.4C445 23.2747 445.203 24.064 445.608 24.768C446.024 25.472 446.595 26.0267 447.32 26.432C448.045 26.8373 448.851 27.04 449.736 27.04C451.08 27.04 452.184 26.592 453.048 25.696L453.8 26.448C453.309 26.9813 452.707 27.392 451.992 27.68C451.288 27.9573 450.52 28.096 449.688 28.096ZM463.387 19.584V28H462.299V26.464C462 26.976 461.589 27.376 461.067 27.664C460.544 27.9413 459.947 28.08 459.275 28.08C458.176 28.08 457.307 27.776 456.667 27.168C456.037 26.5493 455.723 25.648 455.723 24.464V19.584H456.859V24.352C456.859 25.2373 457.077 25.9093 457.515 26.368C457.952 26.8267 458.576 27.056 459.387 27.056C460.272 27.056 460.971 26.7893 461.483 26.256C461.995 25.712 462.251 24.96 462.251 24V19.584H463.387ZM467.656 21.232C467.923 20.6667 468.318 20.24 468.84 19.952C469.374 19.664 470.03 19.52 470.808 19.52V20.624L470.536 20.608C469.651 20.608 468.958 20.88 468.456 21.424C467.955 21.968 467.704 22.7307 467.704 23.712V28H466.568V19.584H467.656V21.232ZM473.953 21.232C474.22 20.6667 474.615 20.24 475.137 19.952C475.671 19.664 476.327 19.52 477.105 19.52V20.624L476.833 20.608C475.948 20.608 475.255 20.88 474.753 21.424C474.252 21.968 474.001 22.7307 474.001 23.712V28H472.865V19.584H473.953V21.232ZM486.412 24.144H479.372C479.436 25.0187 479.772 25.728 480.38 26.272C480.988 26.8053 481.756 27.072 482.684 27.072C483.207 27.072 483.687 26.9813 484.124 26.8C484.561 26.608 484.94 26.3307 485.26 25.968L485.9 26.704C485.527 27.152 485.057 27.4933 484.492 27.728C483.937 27.9627 483.324 28.08 482.652 28.08C481.788 28.08 481.02 27.8987 480.348 27.536C479.687 27.1627 479.169 26.6507 478.796 26C478.423 25.3493 478.236 24.6133 478.236 23.792C478.236 22.9707 478.412 22.2347 478.764 21.584C479.127 20.9333 479.617 20.4267 480.236 20.064C480.865 19.7013 481.569 19.52 482.348 19.52C483.127 19.52 483.825 19.7013 484.444 20.064C485.063 20.4267 485.548 20.9333 485.9 21.584C486.252 22.224 486.428 22.96 486.428 23.792L486.412 24.144ZM482.348 20.496C481.537 20.496 480.855 20.7573 480.3 21.28C479.756 21.792 479.447 22.464 479.372 23.296H485.34C485.265 22.464 484.951 21.792 484.396 21.28C483.852 20.7573 483.169 20.496 482.348 20.496ZM493.028 19.52C494.084 19.52 494.922 19.8293 495.54 20.448C496.17 21.056 496.484 21.9467 496.484 23.12V28H495.348V23.232C495.348 22.3573 495.13 21.6907 494.692 21.232C494.255 20.7733 493.631 20.544 492.82 20.544C491.914 20.544 491.194 20.816 490.66 21.36C490.138 21.8933 489.876 22.6347 489.876 23.584V28H488.74V19.584H489.828V21.136C490.138 20.624 490.564 20.2293 491.108 19.952C491.663 19.664 492.303 19.52 493.028 19.52ZM503.088 28.08C502.256 28.08 501.509 27.8987 500.848 27.536C500.197 27.1733 499.685 26.6667 499.312 26.016C498.938 25.3547 498.752 24.6133 498.752 23.792C498.752 22.9707 498.938 22.2347 499.312 21.584C499.685 20.9333 500.197 20.4267 500.848 20.064C501.509 19.7013 502.256 19.52 503.088 19.52C503.813 19.52 504.458 19.664 505.024 19.952C505.6 20.2293 506.053 20.64 506.384 21.184L505.536 21.76C505.258 21.344 504.906 21.0347 504.48 20.832C504.053 20.6187 503.589 20.512 503.088 20.512C502.48 20.512 501.93 20.6507 501.44 20.928C500.96 21.1947 500.581 21.5787 500.304 22.08C500.037 22.5813 499.904 23.152 499.904 23.792C499.904 24.4427 500.037 25.0187 500.304 25.52C500.581 26.0107 500.96 26.3947 501.44 26.672C501.93 26.9387 502.48 27.072 503.088 27.072C503.589 27.072 504.053 26.9707 504.48 26.768C504.906 26.5653 505.258 26.256 505.536 25.84L506.384 26.416C506.053 26.96 505.6 27.376 505.024 27.664C504.448 27.9413 503.802 28.08 503.088 28.08ZM515.562 19.584L511.354 29.008C511.013 29.7973 510.618 30.3573 510.17 30.688C509.722 31.0187 509.184 31.184 508.554 31.184C508.149 31.184 507.77 31.12 507.418 30.992C507.066 30.864 506.762 30.672 506.506 30.416L507.034 29.568C507.461 29.9947 507.973 30.208 508.57 30.208C508.954 30.208 509.28 30.1013 509.546 29.888C509.824 29.6747 510.08 29.312 510.314 28.8L510.682 27.984L506.922 19.584H508.106L511.274 26.736L514.442 19.584H515.562Z" fill="#1F3684"/>
<path d="M199.848 25.008H193.608L192.264 28H191.032L196.152 16.8H197.32L202.44 28H201.192L199.848 25.008ZM199.416 24.048L196.728 18.032L194.04 24.048H199.416ZM207.463 28.08C206.631 28.08 205.884 27.8987 205.223 27.536C204.572 27.1733 204.06 26.6667 203.687 26.016C203.313 25.3547 203.127 24.6133 203.127 23.792C203.127 22.9707 203.313 22.2347 203.687 21.584C204.06 20.9333 204.572 20.4267 205.223 20.064C205.884 19.7013 206.631 19.52 207.463 19.52C208.188 19.52 208.833 19.664 209.399 19.952C209.975 20.2293 210.428 20.64 210.759 21.184L209.911 21.76C209.633 21.344 209.281 21.0347 208.855 20.832C208.428 20.6187 207.964 20.512 207.463 20.512C206.855 20.512 206.305 20.6507 205.815 20.928C205.335 21.1947 204.956 21.5787 204.679 22.08C204.412 22.5813 204.279 23.152 204.279 23.792C204.279 24.4427 204.412 25.0187 204.679 25.52C204.956 26.0107 205.335 26.3947 205.815 26.672C206.305 26.9387 206.855 27.072 207.463 27.072C207.964 27.072 208.428 26.9707 208.855 26.768C209.281 26.5653 209.633 26.256 209.911 25.84L210.759 26.416C210.428 26.96 209.975 27.376 209.399 27.664C208.823 27.9413 208.177 28.08 207.463 28.08ZM217.516 27.488C217.303 27.68 217.036 27.8293 216.716 27.936C216.407 28.032 216.081 28.08 215.74 28.08C214.951 28.08 214.343 27.8667 213.916 27.44C213.489 27.0133 213.276 26.4107 213.276 25.632V20.544H211.772V19.584H213.276V17.744H214.412V19.584H216.972V20.544H214.412V25.568C214.412 26.0693 214.535 26.4533 214.78 26.72C215.036 26.976 215.399 27.104 215.868 27.104C216.103 27.104 216.327 27.0667 216.54 26.992C216.764 26.9173 216.956 26.8107 217.116 26.672L217.516 27.488ZM219.584 19.584H220.72V28H219.584V19.584ZM220.16 17.744C219.925 17.744 219.728 17.664 219.568 17.504C219.408 17.344 219.328 17.152 219.328 16.928C219.328 16.7147 219.408 16.528 219.568 16.368C219.728 16.208 219.925 16.128 220.16 16.128C220.395 16.128 220.592 16.208 220.752 16.368C220.912 16.5173 220.992 16.6987 220.992 16.912C220.992 17.1467 220.912 17.344 220.752 17.504C220.592 17.664 220.395 17.744 220.16 17.744ZM227.321 28.08C226.51 28.08 225.78 27.8987 225.129 27.536C224.478 27.1627 223.966 26.6507 223.593 26C223.22 25.3493 223.033 24.6133 223.033 23.792C223.033 22.9707 223.22 22.2347 223.593 21.584C223.966 20.9333 224.478 20.4267 225.129 20.064C225.78 19.7013 226.51 19.52 227.321 19.52C228.132 19.52 228.862 19.7013 229.513 20.064C230.164 20.4267 230.67 20.9333 231.033 21.584C231.406 22.2347 231.593 22.9707 231.593 23.792C231.593 24.6133 231.406 25.3493 231.033 26C230.67 26.6507 230.164 27.1627 229.513 27.536C228.862 27.8987 228.132 28.08 227.321 28.08ZM227.321 27.072C227.918 27.072 228.452 26.9387 228.921 26.672C229.401 26.3947 229.774 26.0053 230.041 25.504C230.308 25.0027 230.441 24.432 230.441 23.792C230.441 23.152 230.308 22.5813 230.041 22.08C229.774 21.5787 229.401 21.1947 228.921 20.928C228.452 20.6507 227.918 20.512 227.321 20.512C226.724 20.512 226.185 20.6507 225.705 20.928C225.236 21.1947 224.862 21.5787 224.585 22.08C224.318 22.5813 224.185 23.152 224.185 23.792C224.185 24.432 224.318 25.0027 224.585 25.504C224.862 26.0053 225.236 26.3947 225.705 26.672C226.185 26.9387 226.724 27.072 227.321 27.072ZM238.2 19.52C239.256 19.52 240.093 19.8293 240.712 20.448C241.341 21.056 241.656 21.9467 241.656 23.12V28H240.52V23.232C240.52 22.3573 240.301 21.6907 239.864 21.232C239.427 20.7733 238.803 20.544 237.992 20.544C237.085 20.544 236.365 20.816 235.832 21.36C235.309 21.8933 235.048 22.6347 235.048 23.584V28H233.912V19.584H235V21.136C235.309 20.624 235.736 20.2293 236.28 19.952C236.835 19.664 237.475 19.52 238.2 19.52Z" fill="#1F3684"/>
<path d="M571.472 28L568.912 24.4C568.624 24.432 568.325 24.448 568.016 24.448H565.008V28H563.824V16.8H568.016C569.445 16.8 570.565 17.1413 571.376 17.824C572.187 18.5067 572.592 19.4453 572.592 20.64C572.592 21.5147 572.368 22.256 571.92 22.864C571.483 23.4613 570.853 23.8933 570.032 24.16L572.768 28H571.472ZM567.984 23.44C569.093 23.44 569.941 23.1947 570.528 22.704C571.115 22.2133 571.408 21.5253 571.408 20.64C571.408 19.7333 571.115 19.04 570.528 18.56C569.941 18.0693 569.093 17.824 567.984 17.824H565.008V23.44H567.984ZM582.475 24.144H575.435C575.499 25.0187 575.835 25.728 576.443 26.272C577.051 26.8053 577.819 27.072 578.747 27.072C579.269 27.072 579.749 26.9813 580.187 26.8C580.624 26.608 581.003 26.3307 581.323 25.968L581.963 26.704C581.589 27.152 581.12 27.4933 580.555 27.728C580 27.9627 579.387 28.08 578.715 28.08C577.851 28.08 577.083 27.8987 576.411 27.536C575.749 27.1627 575.232 26.6507 574.859 26C574.485 25.3493 574.299 24.6133 574.299 23.792C574.299 22.9707 574.475 22.2347 574.827 21.584C575.189 20.9333 575.68 20.4267 576.299 20.064C576.928 19.7013 577.632 19.52 578.411 19.52C579.189 19.52 579.888 19.7013 580.507 20.064C581.125 20.4267 581.611 20.9333 581.963 21.584C582.315 22.224 582.491 22.96 582.491 23.792L582.475 24.144ZM578.411 20.496C577.6 20.496 576.917 20.7573 576.363 21.28C575.819 21.792 575.509 22.464 575.435 23.296H581.403C581.328 22.464 581.013 21.792 580.459 21.28C579.915 20.7573 579.232 20.496 578.411 20.496ZM595.299 19.52C596.355 19.52 597.181 19.824 597.779 20.432C598.387 21.04 598.691 21.936 598.691 23.12V28H597.555V23.232C597.555 22.3573 597.341 21.6907 596.915 21.232C596.499 20.7733 595.907 20.544 595.139 20.544C594.264 20.544 593.576 20.816 593.075 21.36C592.573 21.8933 592.323 22.6347 592.323 23.584V28H591.187V23.232C591.187 22.3573 590.973 21.6907 590.547 21.232C590.131 20.7733 589.533 20.544 588.755 20.544C587.891 20.544 587.203 20.816 586.691 21.36C586.189 21.8933 585.939 22.6347 585.939 23.584V28H584.803V19.584H585.891V21.12C586.189 20.608 586.605 20.2133 587.139 19.936C587.672 19.6587 588.285 19.52 588.979 19.52C589.683 19.52 590.291 19.6693 590.803 19.968C591.325 20.2667 591.715 20.7093 591.971 21.296C592.28 20.7413 592.723 20.3093 593.299 20C593.885 19.68 594.552 19.52 595.299 19.52ZM604.716 19.52C605.814 19.52 606.657 19.7973 607.244 20.352C607.83 20.896 608.124 21.7067 608.124 22.784V28H607.036V26.688C606.78 27.1253 606.401 27.4667 605.9 27.712C605.409 27.9573 604.822 28.08 604.14 28.08C603.201 28.08 602.454 27.856 601.9 27.408C601.345 26.96 601.068 26.368 601.068 25.632C601.068 24.9173 601.324 24.3413 601.836 23.904C602.358 23.4667 603.185 23.248 604.316 23.248H606.988V22.736C606.988 22.0107 606.785 21.4613 606.38 21.088C605.974 20.704 605.382 20.512 604.604 20.512C604.07 20.512 603.558 20.6027 603.068 20.784C602.577 20.9547 602.156 21.1947 601.804 21.504L601.292 20.656C601.718 20.2933 602.23 20.016 602.828 19.824C603.425 19.6213 604.054 19.52 604.716 19.52ZM604.316 27.184C604.956 27.184 605.505 27.04 605.964 26.752C606.422 26.4533 606.764 26.0267 606.988 25.472V24.096H604.348C602.908 24.096 602.188 24.5973 602.188 25.6C602.188 26.0907 602.374 26.48 602.748 26.768C603.121 27.0453 603.644 27.184 604.316 27.184ZM612.297 21.232C612.564 20.6667 612.958 20.24 613.481 19.952C614.014 19.664 614.67 19.52 615.449 19.52V20.624L615.177 20.608C614.292 20.608 613.598 20.88 613.097 21.424C612.596 21.968 612.345 22.7307 612.345 23.712V28H611.209V19.584H612.297V21.232ZM620.626 23.776L618.642 25.6V28H617.506V16.128H618.642V24.176L623.666 19.584H625.074L621.474 23.024L625.41 28H624.018L620.626 23.776ZM629.121 28.08C628.439 28.08 627.783 27.984 627.153 27.792C626.535 27.5893 626.049 27.3387 625.697 27.04L626.209 26.144C626.561 26.4213 627.004 26.6507 627.537 26.832C628.071 27.0027 628.625 27.088 629.201 27.088C629.969 27.088 630.535 26.9707 630.897 26.736C631.271 26.4907 631.457 26.1493 631.457 25.712C631.457 25.4027 631.356 25.1627 631.153 24.992C630.951 24.8107 630.695 24.6773 630.385 24.592C630.076 24.496 629.665 24.4053 629.153 24.32C628.471 24.192 627.921 24.064 627.505 23.936C627.089 23.7973 626.732 23.568 626.433 23.248C626.145 22.928 626.001 22.4853 626.001 21.92C626.001 21.216 626.295 20.64 626.881 20.192C627.468 19.744 628.284 19.52 629.329 19.52C629.873 19.52 630.417 19.5947 630.961 19.744C631.505 19.8827 631.953 20.0693 632.305 20.304L631.809 21.216C631.116 20.736 630.289 20.496 629.329 20.496C628.604 20.496 628.055 20.624 627.681 20.88C627.319 21.136 627.137 21.472 627.137 21.888C627.137 22.208 627.239 22.464 627.441 22.656C627.655 22.848 627.916 22.992 628.225 23.088C628.535 23.1733 628.961 23.264 629.505 23.36C630.177 23.488 630.716 23.616 631.121 23.744C631.527 23.872 631.873 24.0907 632.161 24.4C632.449 24.7093 632.593 25.136 632.593 25.68C632.593 26.416 632.284 27.0027 631.665 27.44C631.057 27.8667 630.209 28.08 629.121 28.08Z" fill="#1F3684"/>
<path d="M31.72 28.096C30.6107 28.096 29.6027 27.8507 28.696 27.36C27.8 26.8587 27.096 26.176 26.584 25.312C26.0827 24.448 25.832 23.4773 25.832 22.4C25.832 21.3227 26.0827 20.352 26.584 19.488C27.096 18.624 27.8 17.9467 28.696 17.456C29.6027 16.9547 30.6107 16.704 31.72 16.704C32.8293 16.704 33.8267 16.9493 34.712 17.44C35.608 17.9307 36.312 18.6133 36.824 19.488C37.336 20.352 37.592 21.3227 37.592 22.4C37.592 23.4773 37.336 24.4533 36.824 25.328C36.312 26.192 35.608 26.8693 34.712 27.36C33.8267 27.8507 32.8293 28.096 31.72 28.096ZM31.72 27.04C32.6053 27.04 33.4053 26.8427 34.12 26.448C34.8347 26.0427 35.3947 25.488 35.8 24.784C36.2053 24.0693 36.408 23.2747 36.408 22.4C36.408 21.5253 36.2053 20.736 35.8 20.032C35.3947 19.3173 34.8347 18.7627 34.12 18.368C33.4053 17.9627 32.6053 17.76 31.72 17.76C30.8347 17.76 30.0293 17.9627 29.304 18.368C28.5893 18.7627 28.024 19.3173 27.608 20.032C27.2027 20.736 27 21.5253 27 22.4C27 23.2747 27.2027 24.0693 27.608 24.784C28.024 25.488 28.5893 26.0427 29.304 26.448C30.0293 26.8427 30.8347 27.04 31.72 27.04ZM41.0939 21.232C41.3605 20.6667 41.7552 20.24 42.2779 19.952C42.8112 19.664 43.4672 19.52 44.2459 19.52V20.624L43.9739 20.608C43.0885 20.608 42.3952 20.88 41.8939 21.424C41.3925 21.968 41.1419 22.7307 41.1419 23.712V28H40.0059V19.584H41.0939V21.232ZM53.9046 16.128V28H52.8166V26.336C52.4753 26.9013 52.022 27.3333 51.4566 27.632C50.902 27.9307 50.2726 28.08 49.5686 28.08C48.7793 28.08 48.0646 27.8987 47.4246 27.536C46.7846 27.1733 46.2833 26.6667 45.9206 26.016C45.558 25.3653 45.3766 24.624 45.3766 23.792C45.3766 22.96 45.558 22.2187 45.9206 21.568C46.2833 20.9173 46.7846 20.416 47.4246 20.064C48.0646 19.7013 48.7793 19.52 49.5686 19.52C50.2513 19.52 50.8646 19.664 51.4086 19.952C51.9633 20.2293 52.4166 20.64 52.7686 21.184V16.128H53.9046ZM49.6646 27.072C50.2513 27.072 50.7793 26.9387 51.2486 26.672C51.7286 26.3947 52.102 26.0053 52.3686 25.504C52.646 25.0027 52.7846 24.432 52.7846 23.792C52.7846 23.152 52.646 22.5813 52.3686 22.08C52.102 21.5787 51.7286 21.1947 51.2486 20.928C50.7793 20.6507 50.2513 20.512 49.6646 20.512C49.0673 20.512 48.5286 20.6507 48.0486 20.928C47.5793 21.1947 47.206 21.5787 46.9286 22.08C46.662 22.5813 46.5286 23.152 46.5286 23.792C46.5286 24.432 46.662 25.0027 46.9286 25.504C47.206 26.0053 47.5793 26.3947 48.0486 26.672C48.5286 26.9387 49.0673 27.072 49.6646 27.072ZM64.3964 24.144H57.3564C57.4204 25.0187 57.7564 25.728 58.3644 26.272C58.9724 26.8053 59.7404 27.072 60.6684 27.072C61.191 27.072 61.671 26.9813 62.1084 26.8C62.5457 26.608 62.9244 26.3307 63.2444 25.968L63.8844 26.704C63.511 27.152 63.0417 27.4933 62.4764 27.728C61.9217 27.9627 61.3084 28.08 60.6364 28.08C59.7724 28.08 59.0044 27.8987 58.3324 27.536C57.671 27.1627 57.1537 26.6507 56.7804 26C56.407 25.3493 56.2204 24.6133 56.2204 23.792C56.2204 22.9707 56.3964 22.2347 56.7484 21.584C57.111 20.9333 57.6017 20.4267 58.2204 20.064C58.8497 19.7013 59.5537 19.52 60.3324 19.52C61.111 19.52 61.8097 19.7013 62.4284 20.064C63.047 20.4267 63.5324 20.9333 63.8844 21.584C64.2364 22.224 64.4124 22.96 64.4124 23.792L64.3964 24.144ZM60.3324 20.496C59.5217 20.496 58.839 20.7573 58.2844 21.28C57.7404 21.792 57.431 22.464 57.3564 23.296H63.3244C63.2497 22.464 62.935 21.792 62.3804 21.28C61.8364 20.7573 61.1537 20.496 60.3324 20.496ZM67.8126 21.232C68.0793 20.6667 68.474 20.24 68.9966 19.952C69.53 19.664 70.186 19.52 70.9646 19.52V20.624L70.6926 20.608C69.8073 20.608 69.114 20.88 68.6126 21.424C68.1113 21.968 67.8606 22.7307 67.8606 23.712V28H66.7246V19.584H67.8126V21.232ZM77.574 16.8H82.134C83.318 16.8 84.3633 17.04 85.27 17.52C86.1767 17.9893 86.8807 18.6507 87.382 19.504C87.8833 20.3467 88.134 21.312 88.134 22.4C88.134 23.488 87.8833 24.4587 87.382 25.312C86.8807 26.1547 86.1767 26.816 85.27 27.296C84.3633 27.7653 83.318 28 82.134 28H77.574V16.8ZM82.07 26.976C83.0513 26.976 83.91 26.784 84.646 26.4C85.382 26.0053 85.9527 25.4667 86.358 24.784C86.7633 24.0907 86.966 23.296 86.966 22.4C86.966 21.504 86.7633 20.7147 86.358 20.032C85.9527 19.3387 85.382 18.8 84.646 18.416C83.91 18.0213 83.0513 17.824 82.07 17.824H78.758V26.976H82.07ZM93.4968 19.52C94.5954 19.52 95.4381 19.7973 96.0248 20.352C96.6114 20.896 96.9048 21.7067 96.9048 22.784V28H95.8168V26.688C95.5608 27.1253 95.1821 27.4667 94.6808 27.712C94.1901 27.9573 93.6034 28.08 92.9208 28.08C91.9821 28.08 91.2354 27.856 90.6808 27.408C90.1261 26.96 89.8488 26.368 89.8488 25.632C89.8488 24.9173 90.1048 24.3413 90.6168 23.904C91.1394 23.4667 91.9661 23.248 93.0968 23.248H95.7688V22.736C95.7688 22.0107 95.5661 21.4613 95.1608 21.088C94.7554 20.704 94.1634 20.512 93.3848 20.512C92.8514 20.512 92.3394 20.6027 91.8488 20.784C91.3581 20.9547 90.9368 21.1947 90.5848 21.504L90.0728 20.656C90.4994 20.2933 91.0114 20.016 91.6088 19.824C92.2061 19.6213 92.8354 19.52 93.4968 19.52ZM93.0968 27.184C93.7368 27.184 94.2861 27.04 94.7448 26.752C95.2034 26.4533 95.5448 26.0267 95.7688 25.472V24.096H93.1288C91.6888 24.096 90.9688 24.5973 90.9688 25.6C90.9688 26.0907 91.1554 26.48 91.5288 26.768C91.9021 27.0453 92.4248 27.184 93.0968 27.184ZM104.422 27.488C104.209 27.68 103.942 27.8293 103.622 27.936C103.313 28.032 102.988 28.08 102.646 28.08C101.857 28.08 101.249 27.8667 100.822 27.44C100.396 27.0133 100.182 26.4107 100.182 25.632V20.544H98.6783V19.584H100.182V17.744H101.318V19.584H103.878V20.544H101.318V25.568C101.318 26.0693 101.441 26.4533 101.686 26.72C101.942 26.976 102.305 27.104 102.774 27.104C103.009 27.104 103.233 27.0667 103.446 26.992C103.67 26.9173 103.862 26.8107 104.022 26.672L104.422 27.488ZM113.521 24.144H106.481C106.545 25.0187 106.881 25.728 107.489 26.272C108.097 26.8053 108.865 27.072 109.793 27.072C110.316 27.072 110.796 26.9813 111.233 26.8C111.671 26.608 112.049 26.3307 112.369 25.968L113.009 26.704C112.636 27.152 112.167 27.4933 111.601 27.728C111.047 27.9627 110.433 28.08 109.761 28.08C108.897 28.08 108.129 27.8987 107.457 27.536C106.796 27.1627 106.279 26.6507 105.905 26C105.532 25.3493 105.345 24.6133 105.345 23.792C105.345 22.9707 105.521 22.2347 105.873 21.584C106.236 20.9333 106.727 20.4267 107.345 20.064C107.975 19.7013 108.679 19.52 109.457 19.52C110.236 19.52 110.935 19.7013 111.553 20.064C112.172 20.4267 112.657 20.9333 113.009 21.584C113.361 22.224 113.537 22.96 113.537 23.792L113.521 24.144ZM109.457 20.496C108.647 20.496 107.964 20.7573 107.409 21.28C106.865 21.792 106.556 22.464 106.481 23.296H112.449C112.375 22.464 112.06 21.792 111.505 21.28C110.961 20.7573 110.279 20.496 109.457 20.496Z" fill="#1F3684"/>
<path d="M991.22 28.096C990.111 28.096 989.103 27.8507 988.196 27.36C987.3 26.8587 986.596 26.176 986.084 25.312C985.583 24.448 985.332 23.4773 985.332 22.4C985.332 21.3227 985.583 20.352 986.084 19.488C986.596 18.624 987.3 17.9467 988.196 17.456C989.103 16.9547 990.111 16.704 991.22 16.704C992.329 16.704 993.327 16.9493 994.212 17.44C995.108 17.9307 995.812 18.6133 996.324 19.488C996.836 20.352 997.092 21.3227 997.092 22.4C997.092 23.4773 996.836 24.4533 996.324 25.328C995.812 26.192 995.108 26.8693 994.212 27.36C993.327 27.8507 992.329 28.096 991.22 28.096ZM991.22 27.04C992.105 27.04 992.905 26.8427 993.62 26.448C994.335 26.0427 994.895 25.488 995.3 24.784C995.705 24.0693 995.908 23.2747 995.908 22.4C995.908 21.5253 995.705 20.736 995.3 20.032C994.895 19.3173 994.335 18.7627 993.62 18.368C992.905 17.9627 992.105 17.76 991.22 17.76C990.335 17.76 989.529 17.9627 988.804 18.368C988.089 18.7627 987.524 19.3173 987.108 20.032C986.703 20.736 986.5 21.5253 986.5 22.4C986.5 23.2747 986.703 24.0693 987.108 24.784C987.524 25.488 988.089 26.0427 988.804 26.448C989.529 26.8427 990.335 27.04 991.22 27.04ZM1000.59 21.232C1000.86 20.6667 1001.26 20.24 1001.78 19.952C1002.31 19.664 1002.97 19.52 1003.75 19.52V20.624L1003.47 20.608C1002.59 20.608 1001.9 20.88 1001.39 21.424C1000.89 21.968 1000.64 22.7307 1000.64 23.712V28H999.506V19.584H1000.59V21.232ZM1013.4 16.128V28H1012.32V26.336C1011.98 26.9013 1011.52 27.3333 1010.96 27.632C1010.4 27.9307 1009.77 28.08 1009.07 28.08C1008.28 28.08 1007.56 27.8987 1006.92 27.536C1006.28 27.1733 1005.78 26.6667 1005.42 26.016C1005.06 25.3653 1004.88 24.624 1004.88 23.792C1004.88 22.96 1005.06 22.2187 1005.42 21.568C1005.78 20.9173 1006.28 20.416 1006.92 20.064C1007.56 19.7013 1008.28 19.52 1009.07 19.52C1009.75 19.52 1010.36 19.664 1010.91 19.952C1011.46 20.2293 1011.92 20.64 1012.27 21.184V16.128H1013.4ZM1009.16 27.072C1009.75 27.072 1010.28 26.9387 1010.75 26.672C1011.23 26.3947 1011.6 26.0053 1011.87 25.504C1012.15 25.0027 1012.28 24.432 1012.28 23.792C1012.28 23.152 1012.15 22.5813 1011.87 22.08C1011.6 21.5787 1011.23 21.1947 1010.75 20.928C1010.28 20.6507 1009.75 20.512 1009.16 20.512C1008.57 20.512 1008.03 20.6507 1007.55 20.928C1007.08 21.1947 1006.71 21.5787 1006.43 22.08C1006.16 22.5813 1006.03 23.152 1006.03 23.792C1006.03 24.432 1006.16 25.0027 1006.43 25.504C1006.71 26.0053 1007.08 26.3947 1007.55 26.672C1008.03 26.9387 1008.57 27.072 1009.16 27.072ZM1023.9 24.144H1016.86C1016.92 25.0187 1017.26 25.728 1017.86 26.272C1018.47 26.8053 1019.24 27.072 1020.17 27.072C1020.69 27.072 1021.17 26.9813 1021.61 26.8C1022.05 26.608 1022.42 26.3307 1022.74 25.968L1023.38 26.704C1023.01 27.152 1022.54 27.4933 1021.98 27.728C1021.42 27.9627 1020.81 28.08 1020.14 28.08C1019.27 28.08 1018.5 27.8987 1017.83 27.536C1017.17 27.1627 1016.65 26.6507 1016.28 26C1015.91 25.3493 1015.72 24.6133 1015.72 23.792C1015.72 22.9707 1015.9 22.2347 1016.25 21.584C1016.61 20.9333 1017.1 20.4267 1017.72 20.064C1018.35 19.7013 1019.05 19.52 1019.83 19.52C1020.61 19.52 1021.31 19.7013 1021.93 20.064C1022.55 20.4267 1023.03 20.9333 1023.38 21.584C1023.74 22.224 1023.91 22.96 1023.91 23.792L1023.9 24.144ZM1019.83 20.496C1019.02 20.496 1018.34 20.7573 1017.78 21.28C1017.24 21.792 1016.93 22.464 1016.86 23.296H1022.82C1022.75 22.464 1022.44 21.792 1021.88 21.28C1021.34 20.7573 1020.65 20.496 1019.83 20.496ZM1027.31 21.232C1027.58 20.6667 1027.97 20.24 1028.5 19.952C1029.03 19.664 1029.69 19.52 1030.46 19.52V20.624L1030.19 20.608C1029.31 20.608 1028.61 20.88 1028.11 21.424C1027.61 21.968 1027.36 22.7307 1027.36 23.712V28H1026.22V19.584H1027.31V21.232ZM1040.16 28.096C1039.33 28.096 1038.53 27.9627 1037.76 27.696C1037 27.4293 1036.42 27.0773 1036 26.64L1036.47 25.728C1036.87 26.1333 1037.41 26.464 1038.08 26.72C1038.75 26.9653 1039.45 27.088 1040.16 27.088C1041.16 27.088 1041.92 26.9067 1042.42 26.544C1042.92 26.1707 1043.17 25.6907 1043.17 25.104C1043.17 24.656 1043.03 24.2987 1042.75 24.032C1042.49 23.7653 1042.16 23.5627 1041.76 23.424C1041.37 23.2747 1040.82 23.1147 1040.11 22.944C1039.27 22.7307 1038.6 22.528 1038.1 22.336C1037.6 22.1333 1037.16 21.8293 1036.8 21.424C1036.45 21.0187 1036.27 20.4693 1036.27 19.776C1036.27 19.2107 1036.42 18.6987 1036.72 18.24C1037.02 17.7707 1037.48 17.3973 1038.1 17.12C1038.72 16.8427 1039.48 16.704 1040.4 16.704C1041.04 16.704 1041.67 16.7947 1042.27 16.976C1042.89 17.1467 1043.43 17.3867 1043.87 17.696L1043.47 18.64C1043 18.3307 1042.5 18.1013 1041.97 17.952C1041.44 17.792 1040.91 17.712 1040.4 17.712C1039.42 17.712 1038.68 17.904 1038.18 18.288C1037.69 18.6613 1037.44 19.1467 1037.44 19.744C1037.44 20.192 1037.58 20.5547 1037.84 20.832C1038.12 21.0987 1038.46 21.3067 1038.87 21.456C1039.28 21.5947 1039.84 21.7493 1040.53 21.92C1041.35 22.1227 1042.01 22.3253 1042.51 22.528C1043.03 22.72 1043.46 23.0187 1043.81 23.424C1044.16 23.8187 1044.34 24.3573 1044.34 25.04C1044.34 25.6053 1044.18 26.1227 1043.87 26.592C1043.58 27.0507 1043.11 27.4187 1042.48 27.696C1041.85 27.9627 1041.08 28.096 1040.16 28.096ZM1051.11 27.488C1050.9 27.68 1050.63 27.8293 1050.31 27.936C1050 28.032 1049.68 28.08 1049.33 28.08C1048.54 28.08 1047.94 27.8667 1047.51 27.44C1047.08 27.0133 1046.87 26.4107 1046.87 25.632V20.544H1045.37V19.584H1046.87V17.744H1048.01V19.584H1050.57V20.544H1048.01V25.568C1048.01 26.0693 1048.13 26.4533 1048.37 26.72C1048.63 26.976 1048.99 27.104 1049.46 27.104C1049.7 27.104 1049.92 27.0667 1050.13 26.992C1050.36 26.9173 1050.55 26.8107 1050.71 26.672L1051.11 27.488ZM1056.12 19.52C1057.22 19.52 1058.06 19.7973 1058.65 20.352C1059.24 20.896 1059.53 21.7067 1059.53 22.784V28H1058.44V26.688C1058.19 27.1253 1057.81 27.4667 1057.31 27.712C1056.82 27.9573 1056.23 28.08 1055.55 28.08C1054.61 28.08 1053.86 27.856 1053.31 27.408C1052.75 26.96 1052.47 26.368 1052.47 25.632C1052.47 24.9173 1052.73 24.3413 1053.24 23.904C1053.76 23.4667 1054.59 23.248 1055.72 23.248H1058.39V22.736C1058.39 22.0107 1058.19 21.4613 1057.79 21.088C1057.38 20.704 1056.79 20.512 1056.01 20.512C1055.48 20.512 1054.96 20.6027 1054.47 20.784C1053.98 20.9547 1053.56 21.1947 1053.21 21.504L1052.7 20.656C1053.12 20.2933 1053.64 20.016 1054.23 19.824C1054.83 19.6213 1055.46 19.52 1056.12 19.52ZM1055.72 27.184C1056.36 27.184 1056.91 27.04 1057.37 26.752C1057.83 26.4533 1058.17 26.0267 1058.39 25.472V24.096H1055.75C1054.31 24.096 1053.59 24.5973 1053.59 25.6C1053.59 26.0907 1053.78 26.48 1054.15 26.768C1054.53 27.0453 1055.05 27.184 1055.72 27.184ZM1067.05 27.488C1066.83 27.68 1066.57 27.8293 1066.25 27.936C1065.94 28.032 1065.61 28.08 1065.27 28.08C1064.48 28.08 1063.87 27.8667 1063.45 27.44C1063.02 27.0133 1062.81 26.4107 1062.81 25.632V20.544H1061.3V19.584H1062.81V17.744H1063.94V19.584H1066.5V20.544H1063.94V25.568C1063.94 26.0693 1064.07 26.4533 1064.31 26.72C1064.57 26.976 1064.93 27.104 1065.4 27.104C1065.63 27.104 1065.86 27.0667 1066.07 26.992C1066.3 26.9173 1066.49 26.8107 1066.65 26.672L1067.05 27.488ZM1076.7 19.584V28H1075.61V26.464C1075.31 26.976 1074.9 27.376 1074.38 27.664C1073.86 27.9413 1073.26 28.08 1072.59 28.08C1071.49 28.08 1070.62 27.776 1069.98 27.168C1069.35 26.5493 1069.04 25.648 1069.04 24.464V19.584H1070.17V24.352C1070.17 25.2373 1070.39 25.9093 1070.83 26.368C1071.26 26.8267 1071.89 27.056 1072.7 27.056C1073.58 27.056 1074.28 26.7893 1074.8 26.256C1075.31 25.712 1075.56 24.96 1075.56 24V19.584H1076.7ZM1082.14 28.08C1081.45 28.08 1080.8 27.984 1080.17 27.792C1079.55 27.5893 1079.06 27.3387 1078.71 27.04L1079.22 26.144C1079.58 26.4213 1080.02 26.6507 1080.55 26.832C1081.09 27.0027 1081.64 27.088 1082.22 27.088C1082.98 27.088 1083.55 26.9707 1083.91 26.736C1084.29 26.4907 1084.47 26.1493 1084.47 25.712C1084.47 25.4027 1084.37 25.1627 1084.17 24.992C1083.97 24.8107 1083.71 24.6773 1083.4 24.592C1083.09 24.496 1082.68 24.4053 1082.17 24.32C1081.49 24.192 1080.94 24.064 1080.52 23.936C1080.1 23.7973 1079.75 23.568 1079.45 23.248C1079.16 22.928 1079.02 22.4853 1079.02 21.92C1079.02 21.216 1079.31 20.64 1079.9 20.192C1080.48 19.744 1081.3 19.52 1082.34 19.52C1082.89 19.52 1083.43 19.5947 1083.98 19.744C1084.52 19.8827 1084.97 20.0693 1085.32 20.304L1084.82 21.216C1084.13 20.736 1083.3 20.496 1082.34 20.496C1081.62 20.496 1081.07 20.624 1080.7 20.88C1080.33 21.136 1080.15 21.472 1080.15 21.888C1080.15 22.208 1080.25 22.464 1080.46 22.656C1080.67 22.848 1080.93 22.992 1081.24 23.088C1081.55 23.1733 1081.98 23.264 1082.52 23.36C1083.19 23.488 1083.73 23.616 1084.14 23.744C1084.54 23.872 1084.89 24.0907 1085.18 24.4C1085.46 24.7093 1085.61 25.136 1085.61 25.68C1085.61 26.416 1085.3 27.0027 1084.68 27.44C1084.07 27.8667 1083.22 28.08 1082.14 28.08Z" fill="#1F3684"/>
</svg>
