<svg width="16" height="16" viewBox="0 0 16 16" fill="none" xmlns="http://www.w3.org/2000/svg">
<g id="youtube">
<g id="Icon">
<path d="M15.0266 4.28C14.9474 3.9636 14.7862 3.67371 14.5591 3.4396C14.332 3.20549 14.0471 3.03545 13.7333 2.94666C12.5866 2.66666 7.99997 2.66666 7.99997 2.66666C7.99997 2.66666 3.41331 2.66666 2.26664 2.97333C1.95281 3.06212 1.66796 3.23216 1.44087 3.46627C1.21378 3.70038 1.0525 3.99027 0.973308 4.30666C0.763451 5.47037 0.660798 6.65087 0.666641 7.83333C0.65916 9.02469 0.761819 10.2142 0.973308 11.3867C1.06061 11.6932 1.22551 11.9721 1.45207 12.1963C1.67863 12.4205 1.95919 12.5825 2.26664 12.6667C3.41331 12.9733 7.99997 12.9733 7.99997 12.9733C7.99997 12.9733 12.5866 12.9733 13.7333 12.6667C14.0471 12.5779 14.332 12.4078 14.5591 12.1737C14.7862 11.9396 14.9474 11.6497 15.0266 11.3333C15.2349 10.1784 15.3375 9.00689 15.3333 7.83333C15.3408 6.64197 15.2381 5.45246 15.0266 4.28Z" stroke="#808080" stroke-linecap="round" stroke-linejoin="round"/>
<path d="M6.49997 10.0133L10.3333 7.83333L6.49997 5.65333V10.0133Z" stroke="#808080" stroke-linecap="round" stroke-linejoin="round"/>
</g>
</g>
</svg>
